<svg width="153" height="151" viewBox="0 0 153 151" fill="#0F0F0F" xmlns="http://www.w3.org/2000/svg">
<path d="M77.6113 2.80371C77.3193 1.96451 76.1878 1.91209 75.791 2.64648L75.7217 2.80371L64.9443 33.793C63.9364 36.6909 60.5974 37.9853 57.917 36.5879L57.6602 36.4443L29.4834 19.6338C28.7202 19.1785 27.8203 19.865 27.9883 20.6826L28.0361 20.8477L39.6992 51.5146C40.7899 54.3824 39.0647 57.5202 36.1133 58.1729L35.8232 58.2285L3.43359 63.4609C2.55611 63.6027 2.30806 64.7083 2.96289 65.2266L3.10547 65.3213L31.7529 81.3174C34.4313 82.8132 35.1262 86.3257 33.2852 88.7227L33.0986 88.9512L11.6504 113.78C11.0694 114.453 11.5893 115.458 12.4238 115.435L12.5947 115.416L44.8213 109.256C47.8348 108.68 50.6246 110.924 50.7549 113.943L50.7598 114.238L50.2891 147.045C50.2763 147.934 51.3212 148.37 51.9453 147.815L52.0635 147.691L72.791 122.257C74.7293 119.879 78.3088 119.805 80.3496 122.034L80.543 122.257L101.27 147.691C101.831 148.38 102.911 148.042 103.033 147.217L103.045 147.045L102.574 114.238C102.53 111.17 105.225 108.812 108.222 109.208L108.512 109.256L140.738 115.416C141.611 115.583 142.222 114.63 141.785 113.919L141.684 113.78L120.234 88.9512C118.229 86.6292 118.778 83.0903 121.328 81.4678L121.581 81.3174L150.228 65.3213C151.004 64.888 150.859 63.765 150.066 63.502L149.899 63.4609L117.51 58.2285C114.481 57.7391 112.626 54.6754 113.537 51.793L113.634 51.5146L125.297 20.8477C125.613 20.017 124.78 19.2501 124.004 19.5576L123.85 19.6338L95.6738 36.4443C93.0389 38.0165 89.6492 36.8619 88.4941 34.0684L88.3896 33.793L77.6113 2.80371Z" stroke="white" stroke-width="4"/>
</svg>
