<svg width="91" height="89" viewBox="0 0 91 89" fill="#0F0F0F" xmlns="http://www.w3.org/2000/svg">
<path d="M46.9756 2.63965C46.5085 1.29667 44.6087 1.29664 44.1416 2.63965L39.0361 17.3203C38.0998 20.0126 34.9273 21.1675 32.4795 19.707L19.1318 11.7432C17.9491 11.0375 16.5464 12.1604 16.9189 13.4395L16.9609 13.5645L22.4863 28.0928C23.4994 30.757 21.8119 33.6801 18.998 34.1348L3.65332 36.6133C2.24964 36.8401 1.91968 38.7111 3.16113 39.4043L16.7324 46.9824C19.2211 48.372 19.8075 51.6955 17.9443 53.8525L7.7832 65.6152C6.85368 66.6912 7.80356 68.3363 9.2002 68.0693L24.4668 65.1504C27.2664 64.6152 29.8522 66.7848 29.8115 69.6348L29.5879 85.1768C29.5675 86.5985 31.3527 87.2486 32.251 86.1465L42.0703 74.0967C43.871 71.8873 47.2462 71.8873 49.0469 74.0967L58.8662 86.1465C59.7645 87.2487 61.5497 86.5985 61.5293 85.1768L61.3057 69.6348C61.265 66.7848 63.8508 64.6152 66.6504 65.1504L81.918 68.0693C83.3143 68.3359 84.2634 66.6912 83.334 65.6152L73.1729 53.8525C71.3098 51.6955 71.8962 48.372 74.3848 46.9824L87.9561 39.4043C89.1586 38.7328 88.8869 36.9564 87.5928 36.6396L87.4639 36.6133L72.1191 34.1348C69.3931 33.6943 67.7242 30.9369 68.5439 28.3428L68.6309 28.0928L74.1562 13.5645C74.6617 12.2354 73.2064 11.0146 71.9854 11.7432L58.6377 19.707C56.2663 21.1219 53.2153 20.0825 52.1758 17.5684L52.0811 17.3203L46.9756 2.63965Z" stroke="white" stroke-width="3"/>
</svg>
