<svg width="254" height="251" viewBox="0 0 254 251" fill="#0F0F0F" xmlns="http://www.w3.org/2000/svg">
<path d="M127 2.63281C126.875 2.63281 126.772 2.66828 126.704 2.71387C126.664 2.74066 126.615 2.78354 126.57 2.86816L126.527 2.96777L106.561 60.3779C105.452 63.5655 101.779 64.9891 98.8311 63.4521L98.5479 63.2939L46.3496 32.1504C46.2097 32.067 46.1156 32.0624 46.0518 32.0693C45.9702 32.0782 45.8681 32.1171 45.7725 32.1973C45.6771 32.2773 45.6216 32.3706 45.5986 32.4492C45.5852 32.4955 45.5746 32.5599 45.5947 32.6533L45.627 32.7578L67.2334 89.5703C68.4331 92.7248 66.5347 96.1767 63.2881 96.8945L62.9697 96.9551L2.96484 106.649C2.804 106.675 2.7291 106.733 2.68457 106.779C2.62783 106.839 2.5744 106.934 2.55273 107.057C2.53108 107.18 2.548 107.287 2.58105 107.362C2.6005 107.406 2.63445 107.462 2.70996 107.521L2.80078 107.58L55.8711 137.213C58.8178 138.858 59.5825 142.723 57.5566 145.359L57.3516 145.61L17.6172 191.606C17.5104 191.73 17.4896 191.823 17.4854 191.887C17.48 191.969 17.5002 192.076 17.5625 192.184C17.6249 192.292 17.7077 192.362 17.7812 192.398C17.8245 192.42 17.8858 192.441 17.9814 192.438L18.0898 192.425L77.791 181.012C81.1059 180.378 84.1752 182.847 84.3184 186.169L84.3232 186.493L83.4512 247.27C83.4488 247.433 83.4923 247.516 83.5303 247.568C83.5787 247.634 83.6622 247.704 83.7793 247.747C83.8966 247.79 84.0063 247.79 84.0859 247.771C84.1327 247.759 84.193 247.736 84.2637 247.672L84.3379 247.593L122.736 200.475C124.868 197.858 128.807 197.776 131.052 200.229L131.264 200.475L169.662 247.593C169.765 247.719 169.852 247.755 169.914 247.771C169.994 247.79 170.103 247.79 170.221 247.747C170.338 247.704 170.421 247.634 170.47 247.568C170.498 247.529 170.53 247.473 170.543 247.378L170.549 247.27L169.677 186.493C169.628 183.119 172.592 180.524 175.889 180.96L176.209 181.012L235.91 192.425C236.071 192.455 236.161 192.427 236.219 192.398C236.292 192.362 236.375 192.292 236.438 192.184C236.5 192.076 236.52 191.969 236.515 191.887C236.511 191.839 236.499 191.774 236.448 191.693L236.383 191.606L196.648 145.61C194.442 143.056 195.045 139.164 197.851 137.379L198.129 137.213L251.199 107.58C251.342 107.501 251.393 107.421 251.419 107.362C251.452 107.287 251.469 107.18 251.447 107.057C251.426 106.934 251.372 106.839 251.315 106.779C251.282 106.745 251.232 106.704 251.141 106.675L251.035 106.649L191.03 96.9551C187.699 96.4167 185.659 93.0474 186.66 89.877L186.767 89.5703L208.373 32.7578C208.431 32.6051 208.419 32.511 208.401 32.4492C208.378 32.3706 208.323 32.2773 208.228 32.1973C208.132 32.1171 208.03 32.0782 207.948 32.0693C207.9 32.0641 207.836 32.0655 207.747 32.1016L207.649 32.1504L155.452 63.2939C152.554 65.0232 148.825 63.7533 147.555 60.6807L147.439 60.3779L127.473 2.96777C127.419 2.81367 127.349 2.7496 127.296 2.71387C127.228 2.66827 127.125 2.63281 127 2.63281Z" stroke="white" stroke-width="5"/>
</svg>
